<svg width="24" height="24" viewBox="0 0 24 24" fill="none" xmlns="http://www.w3.org/2000/svg">
<path d="M12 22.75C6.07 22.75 1.25 17.93 1.25 12C1.25 6.07 6.07 1.25 12 1.25C17.93 1.25 22.75 6.07 22.75 12C22.75 17.93 17.93 22.75 12 22.75ZM12 2.75C6.9 2.75 2.75 6.9 2.75 12C2.75 17.1 6.9 21.25 12 21.25C17.1 21.25 21.25 17.1 21.25 12C21.25 6.9 17.1 2.75 12 2.75Z" fill="#B3261E"/>
<path d="M14.2982 15.3588L8.6413 9.70191C8.35139 9.41199 8.35139 8.93116 8.6413 8.64125C8.93121 8.35133 9.41205 8.35133 9.70196 8.64125L15.3588 14.2981C15.6487 14.588 15.6487 15.0688 15.3588 15.3588C15.0689 15.6487 14.5881 15.6487 14.2982 15.3588Z" fill="#B3261E"/>
<path d="M8.64118 15.3588C8.35127 15.0688 8.35127 14.588 8.64118 14.2981L14.298 8.64125C14.588 8.35133 15.0688 8.35133 15.3587 8.64125C15.6486 8.93116 15.6486 9.41199 15.3587 9.70191L9.70185 15.3588C9.41193 15.6487 8.9311 15.6487 8.64118 15.3588Z" fill="#B3261E"/>
</svg>
