<svg width="80" height="80" viewBox="0 0 80 80" fill="none" xmlns="http://www.w3.org/2000/svg">
<path d="M55.5 69.1667C55.4667 69.1667 55.4 69.1667 55.3667 69.1667C54 69.1667 52.8667 68.0333 52.9 66.6333C52.9 65.2667 54.0333 64.1667 55.4 64.1667C55.4333 64.1667 55.5 64.1667 55.5333 64.1667C59.3333 64.1667 62.9667 62.7667 65.7667 60.1667C70.9333 55.6333 71.3 49.1667 69.9 44.6C68.5 40.0333 64.6333 34.8667 57.8667 34C56.7667 33.8667 55.9 33.0333 55.7 31.9333C54.3667 23.9667 50.0667 18.4667 43.6 16.4667C36.8667 14.4 29.1 16.4333 24.2333 21.5333C19.5 26.5 18.4 33.4 21.1333 41.0333C21.6 42.3333 20.9333 43.7667 19.6333 44.2333C18.3333 44.7 16.9 44.0333 16.4333 42.7333C13.0667 33.3667 14.6 24.4 20.6333 18.1C26.8 11.6667 36.6 9.09999 45.1 11.7333C52.8667 14.1333 58.3667 20.5333 60.3333 29.4C67.1333 30.9333 72.5667 36.0667 74.7333 43.1667C77.1 50.9 74.9333 58.8333 69.1667 63.9C65.3667 67.3 60.5333 69.1667 55.5 69.1667Z" fill="#034CA0"/>
<path d="M18.5667 69.1667C18.5 69.1667 18.4333 69.1667 18.4 69.1667C8.8 68.5 4.43333 60.9667 4.43333 54.2667C4.43333 47.5667 8.8 40.0667 18.4 39.3667C20.8667 39.3333 23.3 39.9 25.4333 40.9667C26.6667 41.6 27.1333 43.1 26.5333 44.3333C25.9 45.5667 24.4 46.0333 23.1667 45.4333C21.7667 44.7 20.1667 44.4 18.6333 44.3667C12.3333 44.8333 9.46667 49.6667 9.46667 54.2667C9.46667 58.8667 12.3333 63.7 18.8 64.1667C20.1667 64.2667 21.2 65.4667 21.1 66.8333C20.9667 68.1667 19.8667 69.1667 18.5667 69.1667Z" fill="#034CA0"/>
<path d="M52.7333 35.4667C51.8333 35.4667 50.9333 34.9667 50.5 34.0667C49.8667 32.8333 50.3667 31.3333 51.6333 30.7C53.6667 29.6667 55.9667 29.1 58.2333 29.0667C59.5333 29.1333 60.7667 30.1333 60.7667 31.5333C60.8 32.9 59.7 34.0667 58.3 34.0667C56.7667 34.1 55.2333 34.4667 53.8333 35.1667C53.5 35.4 53.1 35.4667 52.7333 35.4667Z" fill="#034CA0"/>
<path d="M36.8968 76.0296C35.5301 76.0296 34.3968 74.8962 34.3968 73.5296V59.5629L31.9968 61.9629C31.0301 62.9296 29.4301 62.9296 28.4634 61.9629C27.4968 60.9962 27.4968 59.3962 28.4634 58.4296L35.1301 51.7629C35.8301 51.0629 36.9301 50.8296 37.8634 51.2296C38.7968 51.5962 39.3968 52.5296 39.3968 53.5296V73.5296C39.3968 74.8962 38.2634 76.0296 36.8968 76.0296Z" fill="#034CA0"/>
<path d="M43.563 62.6962C42.9296 62.6962 42.2963 62.4628 41.7963 61.9628L35.1296 55.2962C34.163 54.3295 34.163 52.7295 35.1296 51.7628C36.0963 50.7962 37.6963 50.7962 38.663 51.7628L45.3296 58.4295C46.2963 59.3962 46.2963 60.9962 45.3296 61.9628C44.8296 62.4628 44.1963 62.6962 43.563 62.6962Z" fill="#034CA0"/>
</svg>
