<svg width="124" height="40" viewBox="0 0 124 40" fill="none" xmlns="http://www.w3.org/2000/svg">
<path d="M115.959 35.9996C115.959 35.2084 116.194 34.435 116.636 33.7771C117.078 33.1193 117.706 32.6065 118.441 32.3038C119.175 32.001 119.984 31.9218 120.764 32.0761C121.544 32.2305 122.26 32.6115 122.822 33.171C123.385 33.7304 123.768 34.4432 123.923 35.2192C124.078 35.9952 123.998 36.7995 123.694 37.5305C123.39 38.2615 122.874 38.8862 122.213 39.3258C121.552 39.7654 120.774 40 119.979 40C118.913 40 117.89 39.5785 117.136 38.8283C116.382 38.0781 115.959 37.0606 115.959 35.9996ZM26.3618 40C25.3055 39.985 24.2975 39.557 23.5558 38.8085C22.8142 38.06 22.3984 37.0511 22.3984 36C22.3984 34.949 22.8142 33.9401 23.5558 33.1916C24.2975 32.4431 25.3055 32.0151 26.3618 32.0001H3.96339C2.90706 31.9851 1.89913 31.5571 1.15746 30.8086C0.415791 30.0601 0 29.0512 0 28.0001C0 26.949 0.415791 25.9402 1.15746 25.1917C1.89913 24.4432 2.90706 24.0151 3.96339 24.0002H26.9373C27.9936 23.9852 29.0016 23.5572 29.7433 22.8087C30.485 22.0601 30.9008 21.0513 30.9008 20.0002C30.9008 18.9491 30.485 17.9403 29.7433 17.1917C29.0016 16.4432 27.9936 16.0152 26.9373 16.0003H12.5779C11.5216 15.9853 10.5136 15.5573 9.77197 14.8087C9.0303 14.0602 8.61451 13.0514 8.61451 12.0003C8.61451 10.9492 9.0303 9.94034 9.77197 9.19183C10.5136 8.44333 11.5216 8.0153 12.5779 8.00032H35.5518C35.0191 8.00787 34.4901 7.91001 33.9957 7.71238C33.5013 7.51475 33.0512 7.22131 32.6718 6.84914C32.2924 6.47696 31.9911 6.03347 31.7854 5.54441C31.5798 5.05536 31.4738 4.5305 31.4738 4.00036C31.4738 3.47023 31.5798 2.94539 31.7854 2.45634C31.9911 1.96728 32.2924 1.52379 32.6718 1.15162C33.0512 0.779435 33.5013 0.485996 33.9957 0.28837C34.4901 0.0907426 35.0191 -0.00714775 35.5518 0.000406124H68.289C68.8217 -0.00714775 69.3507 0.0907426 69.8451 0.28837C70.3395 0.485996 70.7896 0.779435 71.169 1.15162C71.5484 1.52379 71.8497 1.96728 72.0554 2.45634C72.261 2.94539 72.367 3.47023 72.367 4.00036C72.367 4.5305 72.261 5.05536 72.0554 5.54441C71.8497 6.03347 71.5484 6.47696 71.169 6.84914C70.7896 7.22131 70.3395 7.51475 69.8451 7.71238C69.3507 7.91001 68.8217 8.00787 68.289 8.00032H105.047C105.58 7.99277 106.109 8.09066 106.603 8.28828C107.097 8.48591 107.547 8.77935 107.927 9.15153C108.306 9.52371 108.608 9.9672 108.813 10.4563C109.019 10.9453 109.125 11.4702 109.125 12.0003C109.125 12.5304 109.019 13.0553 108.813 13.5443C108.608 14.0334 108.306 14.4769 107.927 14.849C107.547 15.2212 107.097 15.5147 106.603 15.7123C106.109 15.9099 105.58 16.0078 105.047 16.0003H117.682C118.215 15.9927 118.744 16.0906 119.238 16.2882C119.733 16.4858 120.183 16.7793 120.562 17.1514C120.941 17.5236 121.243 17.9671 121.448 18.4562C121.654 18.9452 121.76 19.4701 121.76 20.0002C121.76 20.5303 121.654 21.0552 121.448 21.5442C121.243 22.0333 120.941 22.4768 120.562 22.849C120.183 23.2211 119.733 23.5146 119.238 23.7122C118.744 23.9098 118.215 24.0077 117.682 24.0002H106.769C106.237 23.9926 105.708 24.0905 105.213 24.2881C104.719 24.4857 104.269 24.7792 103.889 25.1514C103.51 25.5235 103.209 25.967 103.003 26.4561C102.797 26.9451 102.691 27.47 102.691 28.0001C102.691 28.5303 102.797 29.0551 103.003 29.5442C103.209 30.0332 103.51 30.4767 103.889 30.8489C104.269 31.2211 104.719 31.5145 105.213 31.7121C105.708 31.9097 106.237 32.0076 106.769 32.0001H110.215C111.272 32.0151 112.28 32.4431 113.021 33.1916C113.763 33.9401 114.179 34.949 114.179 36C114.179 37.0511 113.763 38.06 113.021 38.8085C112.28 39.557 111.272 39.985 110.215 40H26.3618Z" fill="#F3F7FF"/>
<path d="M95.2841 37.7152C96.2359 37.7152 97.0076 36.9475 97.0076 36.0005C97.0076 35.0535 96.2359 34.2859 95.2841 34.2859C94.3322 34.2859 93.5605 35.0535 93.5605 36.0005C93.5605 36.9475 94.3322 37.7152 95.2841 37.7152Z" fill="#E1EBFF"/>
<path d="M105.62 7.42944C106.572 7.42944 107.344 6.66175 107.344 5.71477C107.344 4.76778 106.572 4.00009 105.62 4.00009C104.668 4.00009 103.896 4.76778 103.896 5.71477C103.896 6.66175 104.668 7.42944 105.62 7.42944Z" fill="#E1EBFF"/>
</svg>
