<svg width="20" height="20" viewBox="0 0 20 20" fill="none" xmlns="http://www.w3.org/2000/svg">
<path d="M10 12.2917C9.65833 12.2917 9.375 12.0083 9.375 11.6667V7.5C9.375 7.15833 9.65833 6.875 10 6.875C10.3417 6.875 10.625 7.15833 10.625 7.5V11.6667C10.625 12.0083 10.3417 12.2917 10 12.2917Z" fill="#B3261E"/>
<path d="M9.99996 15C9.94996 15 9.89163 14.9917 9.83329 14.9833C9.78329 14.975 9.73329 14.9583 9.68329 14.9333C9.63329 14.9167 9.58329 14.8917 9.53329 14.8583C9.49163 14.825 9.44996 14.7917 9.40829 14.7583C9.25829 14.6 9.16663 14.3833 9.16663 14.1667C9.16663 13.95 9.25829 13.7333 9.40829 13.575C9.44996 13.5417 9.49163 13.5083 9.53329 13.475C9.58329 13.4417 9.63329 13.4167 9.68329 13.4C9.73329 13.375 9.78329 13.3583 9.83329 13.35C9.94163 13.325 10.0583 13.325 10.1583 13.35C10.2166 13.3583 10.2666 13.375 10.3166 13.4C10.3666 13.4167 10.4166 13.4417 10.4666 13.475C10.5083 13.5083 10.55 13.5417 10.5916 13.575C10.7416 13.7333 10.8333 13.95 10.8333 14.1667C10.8333 14.3833 10.7416 14.6 10.5916 14.7583C10.55 14.7917 10.5083 14.825 10.4666 14.8583C10.4166 14.8917 10.3666 14.9167 10.3166 14.9333C10.2666 14.9583 10.2166 14.975 10.1583 14.9833C10.1083 14.9917 10.05 15 9.99996 15Z" fill="#B3261E"/>
<path d="M15.05 18.4667H4.94998C3.32498 18.4667 2.08331 17.875 1.44998 16.8083C0.82498 15.7417 0.908313 14.3667 1.69998 12.9417L6.74998 3.85834C7.58331 2.35834 8.73331 1.53334 9.99998 1.53334C11.2666 1.53334 12.4166 2.35834 13.25 3.85834L18.3 12.95C19.0916 14.375 19.1833 15.7417 18.55 16.8167C17.9166 17.875 16.675 18.4667 15.05 18.4667ZM9.99998 2.78334C9.21665 2.78334 8.44998 3.38334 7.84165 4.46667L2.79998 13.5583C2.23331 14.575 2.14165 15.5083 2.53331 16.1833C2.92498 16.8583 3.79165 17.225 4.95831 17.225H15.0583C16.225 17.225 17.0833 16.8583 17.4833 16.1833C17.8833 15.5083 17.7833 14.5833 17.2166 13.5583L12.1583 4.46667C11.55 3.38334 10.7833 2.78334 9.99998 2.78334Z" fill="#B3261E"/>
</svg>
