<svg width="21" height="20" viewBox="0 0 21 20" fill="none" xmlns="http://www.w3.org/2000/svg">
    <path
        d="M8 14.7917C7.91667 14.7917 7.84167 14.775 7.75833 14.7417C7.525 14.65 7.375 14.4167 7.375 14.1667V9.16667C7.375 8.82501 7.65833 8.54167 8 8.54167C8.34167 8.54167 8.625 8.82501 8.625 9.16667V12.6583L9.225 12.0583C9.46667 11.8167 9.86667 11.8167 10.1083 12.0583C10.35 12.3 10.35 12.7 10.1083 12.9417L8.44167 14.6083C8.325 14.725 8.15833 14.7917 8 14.7917Z"
        fill="#0D6EFD" />
    <path
        d="M8.00003 14.7917C7.8417 14.7917 7.68337 14.7333 7.55837 14.6083L5.8917 12.9417C5.65003 12.7 5.65003 12.3 5.8917 12.0583C6.13337 11.8167 6.53337 11.8167 6.77503 12.0583L8.4417 13.725C8.68337 13.9667 8.68337 14.3667 8.4417 14.6083C8.3167 14.7333 8.15837 14.7917 8.00003 14.7917Z"
        fill="#0D6EFD" />
    <path
        d="M13.0001 18.9583H8.00008C3.47508 18.9583 1.54175 17.025 1.54175 12.5V7.50001C1.54175 2.97501 3.47508 1.04167 8.00008 1.04167H12.1667C12.5084 1.04167 12.7917 1.32501 12.7917 1.66667C12.7917 2.00834 12.5084 2.29167 12.1667 2.29167H8.00008C4.15841 2.29167 2.79175 3.65834 2.79175 7.50001V12.5C2.79175 16.3417 4.15841 17.7083 8.00008 17.7083H13.0001C16.8417 17.7083 18.2084 16.3417 18.2084 12.5V8.33334C18.2084 7.99167 18.4917 7.70834 18.8334 7.70834C19.1751 7.70834 19.4584 7.99167 19.4584 8.33334V12.5C19.4584 17.025 17.5251 18.9583 13.0001 18.9583Z"
        fill="#0D6EFD" />
    <path
        d="M18.8334 8.95833H15.5001C12.6501 8.95833 11.5417 7.85 11.5417 5V1.66666C11.5417 1.41666 11.6917 1.18333 11.9251 1.09166C12.1584 0.991662 12.4251 1.05 12.6084 1.225L19.2751 7.89166C19.4501 8.06666 19.5084 8.34166 19.4084 8.575C19.3084 8.80833 19.0834 8.95833 18.8334 8.95833ZM12.7917 3.175V5C12.7917 7.15 13.3501 7.70833 15.5001 7.70833H17.3251L12.7917 3.175Z"
        fill="#0D6EFD" />
</svg>