<svg width="24" height="24" viewBox="0 0 24 24" fill="none" xmlns="http://www.w3.org/2000/svg">
<path d="M18.5909 7.875C16.7119 7.875 15.1818 6.33315 15.1818 4.4375C15.1818 2.54185 16.7119 1 18.5909 1C20.4701 1 22 2.54185 22 4.4375C22 6.33315 20.4701 7.875 18.5909 7.875ZM18.5909 2.375C17.4636 2.375 16.5454 3.29982 16.5454 4.4375C16.5454 5.57518 17.4636 6.5 18.5909 6.5C19.7182 6.5 20.6364 5.57518 20.6364 4.4375C20.6364 3.29982 19.7182 2.375 18.5909 2.375ZM18.5909 23C16.7119 23 15.1818 21.4582 15.1818 19.5625C15.1818 17.6668 16.7119 16.125 18.5909 16.125C20.4701 16.125 22 17.6668 22 19.5625C22 21.4582 20.4701 23 18.5909 23ZM18.5909 17.5C17.4636 17.5 16.5454 18.4248 16.5454 19.5625C16.5454 20.7002 17.4636 21.625 18.5909 21.625C19.7182 21.625 20.6364 20.7002 20.6364 19.5625C20.6364 18.4248 19.7182 17.5 18.5909 17.5ZM5.4091 15.4375C3.52992 15.4375 2 13.8957 2 12C2 10.1043 3.52992 8.5625 5.4091 8.5625C7.28828 8.5625 8.8182 10.1043 8.8182 12C8.8182 13.8957 7.28828 15.4375 5.4091 15.4375ZM5.4091 9.9375C4.28184 9.9375 3.36364 10.8623 3.36364 12C3.36364 13.1377 4.28184 14.0625 5.4091 14.0625C6.53636 14.0625 7.45456 13.1377 7.45456 12C7.45456 10.8623 6.53636 9.9375 5.4091 9.9375Z" fill="#6E7191"/>
<path d="M7.78054 11.3307C7.54319 11.3307 7.3123 11.206 7.18779 10.9843C7.00135 10.6543 7.11505 10.2343 7.44232 10.0465L15.8778 5.19727C16.2041 5.00761 16.6214 5.12306 16.8068 5.45405C16.9933 5.78405 16.8796 6.20386 16.5523 6.3918L8.11681 11.2409C8.0143 11.2996 7.89843 11.3305 7.78054 11.3307ZM16.2151 18.8932C16.1005 18.8932 15.985 18.8638 15.8787 18.8026L7.44313 13.9533C7.11586 13.7655 7.00233 13.3455 7.18864 13.0156C7.37405 12.6847 7.79056 12.5701 8.11779 12.7589L16.5532 17.608C16.8805 17.796 16.9941 18.2158 16.8078 18.5458C16.6823 18.7685 16.4515 18.8932 16.2151 18.8932Z" fill="#6E7191"/>
</svg>
