<svg width="21" height="20" viewBox="0 0 21 20" fill="none" xmlns="http://www.w3.org/2000/svg">
<path d="M8 14.7917C7.91667 14.7917 7.84167 14.775 7.75833 14.7417C7.525 14.65 7.375 14.4167 7.375 14.1667V9.16666C7.375 8.82499 7.65833 8.54166 8 8.54166C8.34167 8.54166 8.625 8.82499 8.625 9.16666V12.6583L9.225 12.0583C9.46667 11.8167 9.86667 11.8167 10.1083 12.0583C10.35 12.3 10.35 12.7 10.1083 12.9417L8.44167 14.6083C8.325 14.725 8.15833 14.7917 8 14.7917Z" fill="#0D6EFD"/>
<path d="M7.99997 14.7917C7.84164 14.7917 7.68331 14.7333 7.55831 14.6083L5.89164 12.9417C5.64997 12.7 5.64997 12.3 5.89164 12.0583C6.1333 11.8167 6.53331 11.8167 6.77497 12.0583L8.44164 13.725C8.6833 13.9667 8.6833 14.3667 8.44164 14.6083C8.31664 14.7333 8.1583 14.7917 7.99997 14.7917Z" fill="#0D6EFD"/>
<path d="M13 18.9583H8.00002C3.47502 18.9583 1.54169 17.025 1.54169 12.5V7.49999C1.54169 2.97499 3.47502 1.04166 8.00002 1.04166H12.1667C12.5084 1.04166 12.7917 1.32499 12.7917 1.66666C12.7917 2.00832 12.5084 2.29166 12.1667 2.29166H8.00002C4.15835 2.29166 2.79169 3.65832 2.79169 7.49999V12.5C2.79169 16.3417 4.15835 17.7083 8.00002 17.7083H13C16.8417 17.7083 18.2084 16.3417 18.2084 12.5V8.33332C18.2084 7.99166 18.4917 7.70832 18.8334 7.70832C19.175 7.70832 19.4584 7.99166 19.4584 8.33332V12.5C19.4584 17.025 17.525 18.9583 13 18.9583Z" fill="#0D6EFD"/>
<path d="M18.8334 8.95834H15.5C12.65 8.95834 11.5417 7.85001 11.5417 5.00001V1.66668C11.5417 1.41668 11.6917 1.18334 11.925 1.09168C12.1584 0.991678 12.425 1.05001 12.6084 1.22501L19.275 7.89168C19.45 8.06668 19.5084 8.34168 19.4084 8.57501C19.3084 8.80834 19.0834 8.95834 18.8334 8.95834ZM12.7917 3.17501V5.00001C12.7917 7.15001 13.35 7.70834 15.5 7.70834H17.325L12.7917 3.17501Z" fill="#0D6EFD"/>
</svg>
